<svg xmlns="http://www.w3.org/2000/svg" viewBox="0 10.600000381469727 358 40.150001525878906" data-asc="1" width="358" height="40.150001525878906"><defs/><g fill="#0040ff"><g transform="translate(0, 0)"><path d="M1.10 50Q0 48.75 0 46.80Q1.80 46.80 2.67 46.25Q3.55 45.70 3.55 44.30L3.55 20.80Q3.55 19.40 2.63 18.82Q1.70 18.25 0 18.25Q0 16.40 1.15 15.10L9 15.10Q11.15 15.10 12.63 15.70Q14.10 16.30 15 18.45L20.30 31.50L22.30 37.70L24.20 31.50L30.50 15.10L41.90 15.10Q43.05 16.40 43.05 18.25Q41.35 18.25 40.53 18.82Q39.70 19.40 39.70 20.80L39.70 44.30Q39.70 45.70 40.48 46.25Q41.25 46.80 43.05 46.80Q43.05 48.70 41.90 50L29.50 50Q29 49.40 28.70 48.55Q28.40 47.70 28.40 46.80Q30.10 46.80 30.97 46.25Q31.85 45.70 31.85 44.30L31.85 23.60L23.35 45.05Q22.70 46.70 21.48 47.23Q20.25 47.75 18.55 47.75L8.65 23.60L8.65 44.30Q8.65 45.70 9.68 46.25Q10.70 46.80 12.60 46.80Q12.60 47.70 12.30 48.55Q12 49.40 11.50 50L1.10 50ZM57.90 50.65Q54.35 50.65 51.60 49.13Q48.85 47.60 47.33 44.63Q45.80 41.65 45.80 37.25Q45.80 32.55 47.40 29.35Q49.00 26.15 51.85 24.50Q54.70 22.85 58.40 22.85Q62.00 22.85 64.73 24.40Q67.45 25.95 68.98 28.97Q70.50 32 70.50 36.45Q70.50 41.10 68.90 44.27Q67.30 47.45 64.45 49.05Q61.60 50.65 57.90 50.65M58.30 47.05Q59.35 47.05 60.13 46.30Q60.90 45.55 61.33 43.52Q61.75 41.50 61.75 37.65Q61.75 32.95 61.30 30.52Q60.85 28.10 60.00 27.25Q59.15 26.40 58.00 26.40Q56.95 26.40 56.15 27.15Q55.35 27.90 54.93 29.95Q54.50 32 54.50 35.90Q54.50 40.55 54.98 42.95Q55.45 45.35 56.30 46.20Q57.15 47.05 58.30 47.05ZM95.60 50.30Q93.15 50.30 91.85 49.55Q90.55 48.80 90.55 47.15L90.55 31.05Q90.55 29.45 89.65 28.57Q88.75 27.70 87.30 27.70Q86.35 27.70 85.28 28.32Q84.20 28.95 83.65 30L83.65 44.60Q83.65 46.05 84.28 46.67Q84.90 47.30 86.40 47.30Q86.40 48.85 85.25 50L74.20 50Q73.05 48.85 73.05 47.30Q74.55 47.30 75.18 46.67Q75.80 46.05 75.80 44.60L75.80 17.50Q75.80 16.35 75.15 15.70Q74.50 15.05 72.45 15.05L72.45 13Q73.70 12.35 75.38 11.80Q77.05 11.25 78.73 10.92Q80.40 10.60 81.50 10.60Q82.65 10.60 83.15 11.13Q83.65 11.65 83.65 12.90L83.65 22.75L83.55 26.75Q84.85 25.10 86.90 23.95Q88.95 22.80 91.55 22.80Q98.65 22.80 98.65 30.20L98.65 44.20Q98.65 46.75 101.05 47.20L101.10 48.65Q99.30 50.30 95.60 50.30ZM111.55 50.35Q107.80 50.35 105.48 48.27Q103.15 46.20 103.15 42.95Q103.15 39.70 105.28 37.70Q107.40 35.70 111.85 35.70Q113.30 35.70 114.90 35.98Q116.50 36.25 117.50 36.80L117.50 30.15Q117.50 28.05 116.43 27.22Q115.35 26.40 113.80 26.40Q112.15 26.40 111.10 27.20Q112.10 27.55 112.55 28.27Q113.00 29 113.00 29.85Q113.00 31.50 111.83 32.47Q110.65 33.45 108.95 33.45Q107.05 33.45 105.90 32.33Q104.75 31.20 104.75 29.50Q104.75 27.80 105.90 26.27Q107.05 24.75 109.48 23.75Q111.90 22.75 115.75 22.75Q125.80 22.75 125.80 30.70L125.80 43.95Q125.80 46.35 128.10 46.85L128.10 48.45Q127.45 49.40 125.90 49.88Q124.35 50.35 122.90 50.35Q119.50 50.35 118.10 48Q117.10 48.90 115.45 49.63Q113.80 50.35 111.55 50.35M114.80 46.30Q115.50 46.30 116.25 46.08Q117.00 45.85 117.50 45.50L117.50 40.65Q117.00 40.30 116.23 40.05Q115.45 39.80 114.70 39.80Q113.40 39.80 112.45 40.63Q111.50 41.45 111.50 43.20Q111.50 44.55 112.40 45.42Q113.30 46.30 114.80 46.30ZM167.10 50.30Q165.25 50.30 163.93 49.77Q162.60 49.25 162.60 47.70L162.60 31.05Q162.60 29.45 161.73 28.57Q160.85 27.70 159.40 27.70Q158.60 27.70 157.78 28Q156.95 28.30 156.30 28.90Q156.35 29.10 156.35 29.27Q156.35 29.45 156.35 29.65L156.35 44.60Q156.35 46.05 156.95 46.67Q157.55 47.30 158.85 47.30Q158.85 48.10 158.53 48.77Q158.20 49.45 157.65 50L147 50Q146.50 49.45 146.18 48.77Q145.85 48.10 145.85 47.30Q147.15 47.30 147.68 46.67Q148.20 46.05 148.20 44.60L148.20 31.05Q148.20 29.45 147.28 28.57Q146.35 27.70 145.05 27.70Q144.10 27.70 143.10 28.15Q142.10 28.60 141.40 29.45L141.40 44.60Q141.40 46.05 141.93 46.67Q142.45 47.30 143.70 47.30Q143.70 48.85 142.50 50L131.65 50Q131.10 49.45 130.78 48.77Q130.45 48.10 130.45 47.30Q131.95 47.30 132.60 46.67Q133.25 46.05 133.25 44.60L133.25 29.95Q133.25 28.65 132.53 28.05Q131.80 27.45 129.90 27.45L129.90 25.25Q131.05 24.55 132.83 24Q134.60 23.45 136.28 23.13Q137.95 22.80 138.85 22.80Q139.85 22.80 140.53 23.42Q141.20 24.05 141.40 26Q142.70 24.55 144.68 23.67Q146.65 22.80 149.15 22.80Q154.15 22.80 155.65 26.15Q156.95 24.55 159.03 23.67Q161.10 22.80 163.65 22.80Q167.25 22.80 169.03 24.55Q170.80 26.30 170.80 29.65L170.80 44.60Q170.80 45.75 171.45 46.35Q172.10 46.95 173.25 47.20L173.25 48.65Q172.35 49.45 170.90 49.88Q169.45 50.30 167.10 50.30ZM187.90 50.45Q182.30 50.45 178.98 46.90Q175.65 43.35 175.65 37Q175.65 32.65 177.30 29.47Q178.95 26.30 181.78 24.60Q184.60 22.90 188.20 22.90Q192.70 22.90 195.43 25.52Q198.15 28.15 198.15 32.90Q198.15 34.80 197.53 36.23Q196.90 37.65 194.95 37.65L184.15 37.65Q184.30 41.60 185.98 43.25Q187.65 44.90 190.35 44.90Q192.05 44.90 193.50 44.38Q194.95 43.85 196.20 42.90Q196.65 43.30 196.93 44.13Q197.20 44.95 197.20 45.50Q197.20 46.30 196.08 47.48Q194.95 48.65 192.88 49.55Q190.80 50.45 187.90 50.45M184.15 33.85L189.20 33.85Q190.05 33.85 190.28 33.20Q190.50 32.55 190.50 31.60Q190.50 28.40 189.73 27.38Q188.95 26.35 187.90 26.35Q187.05 26.35 186.20 27Q185.35 27.65 184.80 29.27Q184.25 30.90 184.15 33.85ZM203.70 50.75Q203.05 49.45 202.53 47.13Q202.00 44.80 201.68 42.25Q201.35 39.70 201.35 37.70L206.35 37.70Q207.15 41.95 209.53 44.35Q211.90 46.75 215.05 46.75Q216.60 46.75 217.48 46.13Q218.35 45.50 218.75 44.60Q219.15 43.70 219.15 42.90Q219.15 41.25 218.05 40.05Q216.95 38.85 215.28 37.88Q213.60 36.90 211.90 36.10Q207.50 33.95 204.95 31.18Q202.40 28.40 202.40 24.20Q202.40 21.15 203.90 19.02Q205.40 16.90 207.93 15.75Q210.45 14.60 213.60 14.60Q215.05 14.60 217.03 14.90Q219.00 15.20 220.25 15.90L224.50 14.60Q225.20 15.75 225.48 17.63Q225.75 19.50 225.83 21.50Q225.90 23.50 225.90 25.15L225.90 25.90L221.75 25.90Q220.70 21.65 218.80 20.13Q216.90 18.60 214.70 18.60Q212.65 18.60 211.68 19.77Q210.70 20.95 210.70 22.70Q210.70 24.30 211.58 25.40Q212.45 26.50 213.85 27.32Q215.25 28.15 216.80 28.95Q218.50 29.75 220.35 30.77Q222.20 31.80 223.78 33.15Q225.35 34.50 226.33 36.35Q227.30 38.20 227.30 40.70Q227.30 43.45 225.90 45.73Q224.50 48 221.90 49.38Q219.30 50.75 215.60 50.75Q213.90 50.75 211.88 50.38Q209.85 50 207.55 49.05L203.70 50.75ZM242.30 50.55Q240.85 50.55 238.95 50.35Q237.05 50.15 235.25 49.77Q233.45 49.40 232.25 48.80L232.25 17.70Q232.25 16.55 231.55 15.90Q230.85 15.25 229.20 15.25L229.20 13.65Q230.35 12.85 231.95 12.23Q233.55 11.60 235.18 11.20Q236.80 10.80 237.85 10.80Q239.05 10.80 239.55 11.32Q240.05 11.85 240.05 13.10L240.05 20.20L239.90 24.95Q240.90 23.90 242.30 23.45Q243.70 23 245.40 23Q248.15 23 250.55 24.40Q252.95 25.80 254.45 28.63Q255.95 31.45 255.95 35.85Q255.95 40.65 254.10 43.92Q252.25 47.20 249.15 48.88Q246.05 50.55 242.30 50.55M242.45 46.90Q243.80 46.90 244.93 46.02Q246.05 45.15 246.70 43.10Q247.35 41.05 247.35 37.55Q247.35 32.05 245.80 29.65Q244.25 27.25 241.95 27.25Q240.85 27.25 240.05 27.80L240.05 45.95Q241.00 46.90 242.45 46.90ZM271.05 50.45Q265.45 50.45 262.13 46.90Q258.80 43.35 258.80 37Q258.80 32.65 260.45 29.47Q262.10 26.30 264.93 24.60Q267.75 22.90 271.35 22.90Q275.85 22.90 278.58 25.52Q281.30 28.15 281.30 32.90Q281.30 34.80 280.68 36.23Q280.05 37.65 278.10 37.65L267.30 37.65Q267.45 41.60 269.13 43.25Q270.80 44.90 273.50 44.90Q275.20 44.90 276.65 44.38Q278.10 43.85 279.35 42.90Q279.80 43.30 280.08 44.13Q280.35 44.95 280.35 45.50Q280.35 46.30 279.23 47.48Q278.10 48.65 276.03 49.55Q273.95 50.45 271.05 50.45M267.30 33.85L272.35 33.85Q273.20 33.85 273.43 33.20Q273.65 32.55 273.65 31.60Q273.65 28.40 272.88 27.38Q272.10 26.35 271.05 26.35Q270.20 26.35 269.35 27Q268.50 27.65 267.95 29.27Q267.40 30.90 267.30 33.85ZM306.25 50.30Q303.80 50.30 302.50 49.55Q301.20 48.80 301.20 47.15L301.20 31.05Q301.20 29.45 300.30 28.57Q299.40 27.70 297.95 27.70Q297 27.70 295.93 28.32Q294.85 28.95 294.30 30L294.30 44.60Q294.30 46.05 294.93 46.67Q295.55 47.30 297.05 47.30Q297.05 48.85 295.90 50L284.85 50Q283.70 48.85 283.70 47.30Q285.20 47.30 285.83 46.67Q286.45 46.05 286.45 44.60L286.45 17.50Q286.45 16.35 285.80 15.70Q285.15 15.05 283.10 15.05L283.10 13Q284.35 12.35 286.03 11.80Q287.70 11.25 289.38 10.92Q291.05 10.60 292.15 10.60Q293.30 10.60 293.80 11.13Q294.30 11.65 294.30 12.90L294.30 22.75L294.20 26.75Q295.50 25.10 297.55 23.95Q299.60 22.80 302.20 22.80Q309.30 22.80 309.30 30.20L309.30 44.20Q309.30 46.75 311.70 47.20L311.75 48.65Q309.95 50.30 306.25 50.30ZM322.20 50.35Q318.45 50.35 316.13 48.27Q313.80 46.20 313.80 42.95Q313.80 39.70 315.93 37.70Q318.05 35.70 322.50 35.70Q323.95 35.70 325.55 35.98Q327.15 36.25 328.15 36.80L328.15 30.15Q328.15 28.05 327.08 27.22Q326.00 26.40 324.45 26.40Q322.80 26.40 321.75 27.20Q322.75 27.55 323.20 28.27Q323.65 29 323.65 29.85Q323.65 31.50 322.48 32.47Q321.30 33.45 319.60 33.45Q317.70 33.45 316.55 32.33Q315.40 31.20 315.40 29.50Q315.40 27.80 316.55 26.27Q317.70 24.75 320.13 23.75Q322.55 22.75 326.40 22.75Q336.45 22.75 336.45 30.70L336.45 43.95Q336.45 46.35 338.75 46.85L338.75 48.45Q338.10 49.40 336.55 49.88Q335.00 50.35 333.55 50.35Q330.15 50.35 328.75 48Q327.75 48.90 326.10 49.63Q324.45 50.35 322.20 50.35M325.45 46.30Q326.15 46.30 326.90 46.08Q327.65 45.85 328.15 45.50L328.15 40.65Q327.65 40.30 326.88 40.05Q326.10 39.80 325.35 39.80Q324.05 39.80 323.10 40.63Q322.15 41.45 322.15 43.20Q322.15 44.55 323.05 45.42Q323.95 46.30 325.45 46.30ZM350.95 50.35Q348.85 50.35 347.10 49.58Q345.35 48.80 344.28 46.90Q343.20 45 343.20 41.70L343.20 27.95L340.05 27.95L340.05 24.90Q341.40 24.70 342.60 23.20Q343.80 21.70 344.68 19.50Q345.55 17.30 345.80 15.10Q346.70 14.95 347.45 14.95Q349.45 14.95 350.23 16.10Q351.00 17.25 351.00 18.25L351.00 23.50L356.80 23.50Q356.80 24.70 356.68 25.88Q356.55 27.05 356.00 27.95L351.10 27.95L351.10 42.05Q351.10 43.65 351.75 44.17Q352.40 44.70 353.40 44.70Q354.40 44.70 355.43 44.17Q356.45 43.65 357.05 42.95Q357.60 43.40 357.80 44.27Q358.00 45.15 358.00 45.60Q358.00 46.70 357.25 47.80Q356.50 48.90 354.93 49.63Q353.35 50.35 350.95 50.35Z"/></g></g></svg>